<svg width="200" height="109" viewBox="0 0 200 109" fill="none" xmlns="http://www.w3.org/2000/svg">
<path d="M121.609 69.6738V60.4534H123.85V67.7331H127.418V69.6738H121.609Z" fill="#8A8C8E"/>
<path d="M131.386 70.6511C131.256 70.9898 131.11 71.291 130.949 71.556C130.788 71.8209 130.597 72.0468 130.375 72.2335C130.154 72.4202 129.894 72.5617 129.594 72.6566C129.294 72.7514 128.941 72.7996 128.533 72.7996C128.332 72.7996 128.126 72.786 127.914 72.7605C127.702 72.7349 127.516 72.7002 127.36 72.6566L127.595 70.8589C127.698 70.8935 127.814 70.9221 127.939 70.9432C128.066 70.9643 128.18 70.9763 128.284 70.9763C128.614 70.9763 128.853 70.8995 129.001 70.7489C129.148 70.5969 129.275 70.3816 129.379 70.1045L129.587 69.5701L126.878 63.1877H129.248L130.693 67.3553H130.732L132.021 63.1877H134.287L131.383 70.6511H131.386Z" fill="#8A8C8E"/>
<path d="M139.244 65.285C139.122 65.1285 138.957 65.0035 138.748 64.9071C138.54 64.8123 138.327 64.7641 138.11 64.7641C137.893 64.7641 137.681 64.8093 137.497 64.9011C137.315 64.9929 137.158 65.1134 137.029 65.2655C136.899 65.4175 136.797 65.5937 136.723 65.7924C136.649 65.9927 136.612 66.205 136.612 66.4308C136.612 66.6567 136.646 66.8689 136.716 67.0692C136.785 67.2694 136.887 67.4456 137.021 67.5962C137.155 67.7482 137.316 67.8672 137.503 67.9545C137.69 68.0418 137.9 68.084 138.134 68.084C138.351 68.084 138.566 68.0433 138.778 67.9605C138.991 67.8777 139.162 67.7588 139.293 67.6022L140.478 69.0476C140.209 69.308 139.861 69.5128 139.436 69.6604C139.01 69.8079 138.558 69.8817 138.081 69.8817C137.569 69.8817 137.09 69.8034 136.646 69.6468C136.202 69.4902 135.817 69.2629 135.489 68.9633C135.16 68.6636 134.903 68.3008 134.716 67.8762C134.528 67.4501 134.435 66.9683 134.435 66.4308C134.435 65.8933 134.528 65.4236 134.716 64.999C134.904 64.5729 135.162 64.2115 135.489 63.9119C135.815 63.6123 136.202 63.3819 136.646 63.2223C137.09 63.0612 137.565 62.9814 138.068 62.9814C138.302 62.9814 138.534 63.004 138.765 63.0462C138.995 63.0898 139.216 63.1486 139.429 63.2223C139.641 63.2961 139.837 63.388 140.014 63.4964C140.192 63.6048 140.347 63.7237 140.477 63.8547L139.239 65.2865L139.244 65.285Z" fill="#8A8C8E"/>
<path d="M147.518 66.5089V66.7694C147.518 66.8567 147.514 66.938 147.505 67.0163H142.803C142.819 67.1985 142.875 67.3641 142.965 67.5116C143.057 67.6592 143.173 67.7872 143.318 67.8956C143.461 68.004 143.622 68.0883 143.8 68.15C143.977 68.2102 144.162 68.2418 144.354 68.2418C144.692 68.2418 144.978 68.1786 145.213 68.0536C145.448 67.9272 145.639 67.7646 145.787 67.5658L147.272 68.5038C146.967 68.9465 146.565 69.2867 146.067 69.5261C145.569 69.7655 144.988 69.8845 144.328 69.8845C143.842 69.8845 143.381 69.8077 142.947 69.6571C142.514 69.5051 142.133 69.2837 141.808 68.9931C141.482 68.7026 141.227 68.3442 141.04 67.9181C140.853 67.4936 140.76 67.0072 140.76 66.4592C140.76 65.9112 140.852 65.4504 141.034 65.0198C141.216 64.5907 141.463 64.2249 141.776 63.9252C142.089 63.6256 142.458 63.3938 142.883 63.2281C143.307 63.064 143.768 62.9812 144.263 62.9812C144.759 62.9812 145.179 63.061 145.579 63.2221C145.978 63.3832 146.322 63.6151 146.608 63.9192C146.894 64.2234 147.118 64.5922 147.279 65.0259C147.44 65.4595 147.52 65.9548 147.52 66.5104L147.518 66.5089ZM145.552 65.6883C145.552 65.3496 145.445 65.059 145.233 64.8151C145.021 64.5727 144.701 64.4507 144.275 64.4507C144.068 64.4507 143.876 64.4838 143.702 64.5486C143.529 64.6133 143.377 64.7021 143.246 64.8151C143.116 64.928 143.011 65.0605 142.932 65.2125C142.854 65.3646 142.81 65.5227 142.803 65.6883H145.551H145.552ZM144.563 62.2239H142.947L144.302 60.3479H146.465L144.563 62.2239Z" fill="#8A8C8E"/>
<path d="M155.129 66.509V66.7695C155.129 66.8568 155.124 66.9381 155.115 67.0164H150.413C150.43 67.1986 150.486 67.3642 150.576 67.5117C150.666 67.6593 150.784 67.7873 150.928 67.8957C151.071 68.0041 151.232 68.0884 151.41 68.1501C151.588 68.2103 151.773 68.2419 151.964 68.2419C152.303 68.2419 152.589 68.1787 152.824 68.0537C153.059 67.9273 153.248 67.7647 153.397 67.5659L154.882 68.5039C154.578 68.9466 154.176 69.2868 153.677 69.5262C153.178 69.7656 152.598 69.8846 151.938 69.8846C151.452 69.8846 150.991 69.8078 150.558 69.6572C150.124 69.5052 149.743 69.2838 149.418 68.9932C149.093 68.7027 148.837 68.3443 148.65 67.9182C148.463 67.4937 148.37 67.0073 148.37 66.4593C148.37 65.9113 148.462 65.4505 148.644 65.0199C148.826 64.5908 149.073 64.225 149.386 63.9253C149.7 63.6257 150.068 63.3939 150.493 63.2282C150.919 63.0641 151.378 62.9813 151.874 62.9813C152.369 62.9813 152.789 63.0611 153.19 63.2222C153.589 63.3833 153.932 63.6152 154.218 63.9193C154.504 64.2235 154.728 64.5923 154.889 65.026C155.051 65.4596 155.13 65.9549 155.13 66.5105L155.129 66.509ZM153.162 65.6884C153.162 65.3497 153.056 65.0591 152.843 64.8152C152.631 64.5728 152.312 64.4508 151.886 64.4508C151.678 64.4508 151.487 64.4839 151.312 64.5487C151.139 64.6134 150.987 64.7022 150.856 64.8152C150.726 64.9281 150.621 65.0606 150.543 65.2126C150.464 65.3647 150.421 65.5228 150.413 65.6884H153.161H153.162Z" fill="#8A8C8E"/>
<path d="M121.609 85.3035V76.0831H123.85V85.3035H121.609Z" fill="#8A8C8E"/>
<path d="M129.776 85.3036V81.7608C129.776 81.5787 129.761 81.4055 129.731 81.2399C129.701 81.0758 129.651 80.9297 129.582 80.8033C129.513 80.6768 129.415 80.5774 129.288 80.5037C129.162 80.4299 129.004 80.3922 128.812 80.3922C128.621 80.3922 128.454 80.4299 128.311 80.5037C128.168 80.5774 128.048 80.6798 127.953 80.8093C127.856 80.9388 127.786 81.0893 127.737 81.2595C127.689 81.4281 127.665 81.6043 127.665 81.7864V85.3036H125.517V78.8174H127.587V79.7162H127.612C127.691 79.5777 127.793 79.4407 127.918 79.3067C128.045 79.1727 128.192 79.0568 128.361 78.9619C128.531 78.8671 128.715 78.7888 128.915 78.727C129.115 78.6668 129.327 78.6352 129.553 78.6352C129.987 78.6352 130.356 78.7135 130.66 78.8701C130.964 79.0267 131.209 79.2284 131.396 79.4753C131.583 79.7222 131.717 80.0068 131.8 80.329C131.882 80.6497 131.923 80.9719 131.923 81.2926V85.3036H129.774H129.776Z" fill="#8A8C8E"/>
<path d="M135.784 80.4058V82.8901C135.784 83.1957 135.843 83.4231 135.96 83.5766C136.078 83.7287 136.289 83.8055 136.593 83.8055C136.697 83.8055 136.808 83.7965 136.926 83.7799C137.043 83.7633 137.141 83.7362 137.219 83.7016L137.245 85.2644C137.097 85.3171 136.911 85.3623 136.685 85.4015C136.459 85.4406 136.233 85.4602 136.007 85.4602C135.572 85.4602 135.208 85.406 134.913 85.2976C134.617 85.1892 134.381 85.0326 134.203 84.8278C134.026 84.623 133.898 84.3791 133.819 84.0961C133.741 83.813 133.702 83.4969 133.702 83.1491V80.4073H132.66V78.8189H133.688V77.113H135.786V78.8189H137.309V80.4073H135.786L135.784 80.4058Z" fill="#8A8C8E"/>
<path d="M144.635 82.1372V82.3977C144.635 82.485 144.63 82.5663 144.621 82.6446H139.919C139.936 82.8268 139.991 82.9924 140.082 83.14C140.174 83.2875 140.289 83.4155 140.434 83.5239C140.577 83.6323 140.738 83.7166 140.916 83.7783C141.093 83.8386 141.279 83.8702 141.47 83.8702C141.809 83.8702 142.095 83.8069 142.33 83.682C142.564 83.5555 142.754 83.3929 142.903 83.1942L144.388 84.1322C144.084 84.5748 143.682 84.9151 143.183 85.1545C142.683 85.3939 142.104 85.5128 141.444 85.5128C140.958 85.5128 140.497 85.436 140.064 85.2855C139.63 85.1334 139.249 84.9121 138.924 84.6215C138.599 84.3309 138.343 83.9726 138.156 83.5465C137.969 83.1219 137.876 82.6356 137.876 82.0875C137.876 81.5395 137.968 81.0788 138.15 80.6482C138.332 80.2191 138.579 79.8532 138.892 79.5536C139.205 79.254 139.574 79.0221 139.999 78.8565C140.425 78.6924 140.884 78.6096 141.38 78.6096C141.875 78.6096 142.295 78.6894 142.695 78.8505C143.094 79.0116 143.438 79.2434 143.724 79.5476C144.01 79.8517 144.234 80.2206 144.395 80.6542C144.556 81.0878 144.636 81.5832 144.636 82.1387L144.635 82.1372ZM142.667 81.3167C142.667 80.9779 142.56 80.6873 142.348 80.4434C142.135 80.201 141.816 80.079 141.39 80.079C141.182 80.079 140.991 80.1122 140.816 80.1769C140.643 80.2417 140.491 80.3305 140.36 80.4434C140.231 80.5563 140.125 80.6888 140.047 80.8409C139.969 80.9929 139.925 81.151 139.918 81.3167H142.665H142.667Z" fill="#8A8C8E"/>
<path d="M150.033 80.5745C149.937 80.5489 149.845 80.5309 149.753 80.5218C149.661 80.5128 149.572 80.5083 149.486 80.5083C149.2 80.5083 148.959 80.561 148.764 80.6649C148.568 80.7688 148.411 80.8952 148.295 81.0413C148.178 81.1888 148.094 81.3484 148.041 81.5216C147.988 81.6947 147.963 81.8468 147.963 81.9762V85.3022H145.826V78.8235H147.884V79.7615H147.91C148.074 79.4288 148.309 79.1592 148.613 78.9485C148.917 78.7392 149.268 78.6338 149.669 78.6338C149.756 78.6338 149.84 78.6383 149.923 78.6473C150.006 78.6564 150.072 78.6684 150.125 78.6865L150.033 80.5745Z" fill="#8A8C8E"/>
<path d="M155.176 85.3036V81.7609C155.176 81.5787 155.161 81.4056 155.131 81.24C155.101 81.0759 155.051 80.9298 154.98 80.8033C154.911 80.6769 154.813 80.5775 154.687 80.5037C154.56 80.4299 154.402 80.3923 154.211 80.3923C154.02 80.3923 153.852 80.4299 153.709 80.5037C153.566 80.5775 153.446 80.6799 153.351 80.8094C153.255 80.9388 153.184 81.0894 153.136 81.2595C153.088 81.4282 153.064 81.6043 153.064 81.7865V85.3036H150.915V78.8174H152.985V79.7163H153.011C153.089 79.5778 153.192 79.4408 153.316 79.3068C153.443 79.1728 153.591 79.0568 153.759 78.962C153.929 78.8671 154.113 78.7888 154.313 78.7271C154.513 78.6669 154.726 78.6353 154.952 78.6353C155.385 78.6353 155.754 78.7135 156.058 78.8701C156.362 79.0267 156.608 79.2285 156.794 79.4754C156.981 79.7223 157.115 80.0069 157.198 80.3291C157.281 80.6498 157.321 80.972 157.321 81.2927V85.3036H155.173H155.176Z" fill="#8A8C8E"/>
<path d="M158.708 79.7026C159.09 79.3382 159.534 79.0642 160.043 78.882C160.55 78.6998 161.07 78.608 161.6 78.608C162.13 78.608 162.609 78.6757 162.987 78.8097C163.364 78.9452 163.67 79.153 163.905 79.4346C164.14 79.7161 164.31 80.0729 164.42 80.502C164.528 80.9311 164.583 81.4415 164.583 82.0317V85.3004H162.628V84.6094H162.589C162.423 84.8789 162.175 85.0866 161.841 85.2342C161.507 85.3817 161.144 85.4555 160.754 85.4555C160.493 85.4555 160.224 85.4209 159.947 85.3516C159.668 85.2824 159.415 85.1695 159.185 85.0129C158.955 84.8563 158.766 84.6485 158.619 84.388C158.471 84.1276 158.397 83.8069 158.397 83.4244C158.397 82.9562 158.525 82.5783 158.781 82.2907C159.037 82.0046 159.367 81.7833 159.771 81.6267C160.174 81.4702 160.624 81.3663 161.118 81.3136C161.612 81.2609 162.095 81.2353 162.563 81.2353V81.1314C162.563 80.8107 162.451 80.5728 162.225 80.4222C161.999 80.2702 161.722 80.1949 161.391 80.1949C161.086 80.1949 160.793 80.2596 160.511 80.3906C160.228 80.5216 159.987 80.6767 159.789 80.8589L158.708 79.6995V79.7026ZM162.628 82.4759H162.354C162.119 82.4759 161.883 82.4864 161.645 82.509C161.406 82.5301 161.193 82.5723 161.007 82.6325C160.82 82.6927 160.666 82.7815 160.544 82.899C160.423 83.0164 160.362 83.17 160.362 83.3612C160.362 83.4832 160.391 83.587 160.447 83.6744C160.502 83.7617 160.575 83.831 160.662 83.8821C160.749 83.9348 160.849 83.971 160.962 83.9921C161.074 84.0146 161.183 84.0252 161.287 84.0252C161.72 84.0252 162.053 83.9062 162.283 83.6668C162.514 83.4275 162.628 83.1053 162.628 82.6957V82.4744V82.4759Z" fill="#8A8C8E"/>
<path d="M168.387 80.4058V82.89C168.387 83.1957 168.446 83.423 168.564 83.5766C168.681 83.7287 168.892 83.8054 169.194 83.8054C169.298 83.8054 169.41 83.7964 169.527 83.7798C169.645 83.7633 169.742 83.7362 169.821 83.7016L169.846 85.2644C169.699 85.3171 169.512 85.3622 169.286 85.4014C169.06 85.4405 168.835 85.4601 168.609 85.4601C168.175 85.4601 167.809 85.4059 167.514 85.2975C167.219 85.1891 166.983 85.0325 166.805 84.8278C166.627 84.623 166.499 84.3791 166.421 84.096C166.343 83.813 166.304 83.4968 166.304 83.149V80.4073H165.262V78.8188H166.29V77.113H168.387V78.8188H169.911V80.4073H168.387V80.4058Z" fill="#8A8C8E"/>
<path d="M173.25 76.7457C173.25 76.9113 173.217 77.0649 173.153 77.2079C173.088 77.351 173 77.4744 172.892 77.5798C172.784 77.6837 172.653 77.7665 172.501 77.8267C172.349 77.887 172.19 77.9186 172.025 77.9186C171.677 77.9186 171.386 77.8042 171.153 77.5738C170.918 77.3434 170.801 77.0679 170.801 76.7472C170.801 76.5906 170.831 76.4416 170.893 76.2985C170.953 76.1555 171.04 76.032 171.153 75.9267C171.266 75.8228 171.395 75.7369 171.545 75.6722C171.692 75.6075 171.853 75.5743 172.026 75.5743C172.2 75.5743 172.35 75.6045 172.502 75.6662C172.654 75.7264 172.784 75.8092 172.894 75.9131C173.002 76.017 173.089 76.1405 173.154 76.285C173.219 76.428 173.252 76.5831 173.252 76.7472L173.25 76.7457ZM170.957 85.3036V78.8174H173.094V85.3036H170.957Z" fill="#8A8C8E"/>
<path d="M181.465 82.0332C181.465 82.5632 181.369 83.042 181.179 83.4726C180.988 83.9017 180.727 84.2676 180.398 84.5672C180.068 84.8668 179.685 85.0987 179.252 85.2643C178.817 85.4299 178.353 85.5112 177.858 85.5112C177.362 85.5112 176.909 85.4284 176.471 85.2643C176.033 85.1002 175.65 84.8668 175.325 84.5672C175 84.2676 174.741 83.9032 174.55 83.4726C174.359 83.0435 174.264 82.5632 174.264 82.0332C174.264 81.5033 174.359 81.026 174.55 80.6014C174.741 80.1753 174.998 79.8155 175.325 79.5204C175.65 79.2253 176.033 78.9994 176.471 78.8428C176.909 78.6863 177.371 78.608 177.858 78.608C178.344 78.608 178.817 78.6863 179.252 78.8428C179.685 78.9994 180.068 79.2253 180.398 79.5204C180.727 79.8155 180.988 80.1768 181.179 80.6014C181.37 81.0275 181.465 81.5048 181.465 82.0332ZM179.407 82.0332C179.407 81.8255 179.372 81.6207 179.303 81.4205C179.234 81.2202 179.134 81.0456 179.003 80.8935C178.874 80.7414 178.713 80.618 178.522 80.5231C178.33 80.4283 178.109 80.3801 177.858 80.3801C177.606 80.3801 177.385 80.4283 177.194 80.5231C177.002 80.618 176.844 80.7429 176.718 80.8935C176.591 81.0456 176.496 81.2217 176.432 81.4205C176.367 81.6207 176.334 81.824 176.334 82.0332C176.334 82.2425 176.367 82.4458 176.432 82.646C176.496 82.8463 176.594 83.0255 176.725 83.1866C176.855 83.3477 177.016 83.4756 177.207 83.5705C177.398 83.6668 177.62 83.7135 177.871 83.7135C178.123 83.7135 178.344 83.6653 178.535 83.5705C178.726 83.4756 178.887 83.3477 179.017 83.1866C179.148 83.0255 179.244 82.8463 179.31 82.646C179.375 82.4458 179.408 82.2425 179.408 82.0332H179.407Z" fill="#8A8C8E"/>
<path d="M186.928 85.3036V81.7609C186.928 81.5787 186.913 81.4056 186.883 81.24C186.853 81.0759 186.803 80.9298 186.732 80.8033C186.663 80.6769 186.565 80.5775 186.439 80.5037C186.312 80.4299 186.154 80.3923 185.963 80.3923C185.772 80.3923 185.604 80.4299 185.461 80.5037C185.318 80.5775 185.198 80.6799 185.103 80.8094C185.007 80.9388 184.936 81.0894 184.888 81.2595C184.84 81.4282 184.816 81.6043 184.816 81.7865V85.3036H182.667V78.8174H184.737V79.7163H184.763C184.841 79.5778 184.943 79.4408 185.068 79.3068C185.195 79.1728 185.342 79.0568 185.511 78.962C185.681 78.8671 185.865 78.7888 186.065 78.7271C186.265 78.6669 186.478 78.6353 186.704 78.6353C187.137 78.6353 187.506 78.7135 187.81 78.8701C188.114 79.0267 188.36 79.2285 188.546 79.4754C188.733 79.7223 188.867 80.0069 188.95 80.3291C189.033 80.6498 189.073 80.972 189.073 81.2927V85.3036H186.925H186.928Z" fill="#8A8C8E"/>
<path d="M190.46 79.7025C190.842 79.3381 191.287 79.0641 191.796 78.8819C192.303 78.6998 192.822 78.6079 193.352 78.6079C193.882 78.6079 194.361 78.6757 194.739 78.8097C195.117 78.9452 195.423 79.153 195.657 79.4345C195.892 79.7161 196.064 80.0729 196.172 80.502C196.281 80.9311 196.335 81.4415 196.335 82.0317V85.3004H194.382V84.6093H194.343C194.177 84.8788 193.929 85.0866 193.595 85.2341C193.26 85.3817 192.898 85.4555 192.508 85.4555C192.247 85.4555 191.978 85.4208 191.701 85.3516C191.422 85.2823 191.169 85.1694 190.939 85.0128C190.708 84.8562 190.52 84.6484 190.373 84.388C190.225 84.1275 190.151 83.8068 190.151 83.4244C190.151 82.9561 190.279 82.5782 190.535 82.2907C190.791 82.0046 191.121 81.7833 191.525 81.6267C191.928 81.4701 192.378 81.3662 192.872 81.3135C193.367 81.2608 193.849 81.2352 194.317 81.2352V81.1313C194.317 80.8106 194.204 80.5727 193.979 80.4222C193.753 80.2701 193.474 80.1948 193.145 80.1948C192.84 80.1948 192.547 80.2596 192.265 80.3906C191.984 80.5216 191.743 80.6766 191.543 80.8588L190.462 79.6995L190.46 79.7025ZM194.381 82.4758H194.107C193.872 82.4758 193.635 82.4864 193.397 82.509C193.158 82.53 192.946 82.5722 192.759 82.6324C192.572 82.6927 192.419 82.7815 192.297 82.8989C192.175 83.0164 192.115 83.1699 192.115 83.3611C192.115 83.4831 192.143 83.587 192.199 83.6743C192.255 83.7616 192.327 83.8309 192.414 83.8821C192.502 83.9348 192.601 83.9709 192.714 83.992C192.827 84.0146 192.935 84.0251 193.039 84.0251C193.473 84.0251 193.806 83.9062 194.036 83.6668C194.266 83.4274 194.381 83.1052 194.381 82.6957V82.4743V82.4758Z" fill="#8A8C8E"/>
<path d="M197.825 85.3036V75.4568H200.001V85.3036H197.825Z" fill="#8A8C8E"/>
<path d="M122.559 53.2082H126.857V54.0424H121.622V44.822H122.56V53.2097L122.559 53.2082Z" fill="#8A8C8E"/>
<path d="M134.007 50.9935C134.007 51.4543 133.927 51.8788 133.766 52.2703C133.605 52.6618 133.382 52.999 133.095 53.2866C132.809 53.5727 132.465 53.797 132.066 53.9581C131.667 54.1192 131.228 54.199 130.75 54.199C130.273 54.199 129.847 54.1192 129.448 53.9581C129.049 53.797 128.706 53.5742 128.42 53.2866C128.134 53.0005 127.909 52.6618 127.75 52.2703C127.589 51.8804 127.509 51.4543 127.509 50.9935C127.509 50.5328 127.589 50.1082 127.75 49.7168C127.911 49.3253 128.134 48.9881 128.42 48.7005C128.706 48.4144 129.049 48.1901 129.448 48.029C129.847 47.8679 130.282 47.7881 130.75 47.7881C131.219 47.7881 131.666 47.8679 132.066 48.029C132.465 48.1901 132.809 48.4129 133.095 48.7005C133.381 48.9866 133.605 49.3253 133.766 49.7168C133.927 50.1082 134.007 50.5328 134.007 50.9935ZM133.069 50.9935C133.069 50.6548 133.015 50.3356 132.906 50.036C132.798 49.7364 132.644 49.4759 132.444 49.2546C132.244 49.0332 132.002 48.8571 131.715 48.7276C131.429 48.5966 131.107 48.5319 130.752 48.5319C130.397 48.5319 130.077 48.5966 129.794 48.7276C129.511 48.8571 129.27 49.0332 129.072 49.2546C128.871 49.4759 128.718 49.7364 128.609 50.036C128.501 50.3356 128.447 50.6548 128.447 50.9935C128.447 51.3323 128.501 51.6515 128.609 51.9511C128.718 52.2507 128.871 52.5112 129.072 52.7325C129.272 52.9539 129.513 53.1285 129.794 53.2535C130.076 53.3799 130.395 53.4417 130.752 53.4417C131.109 53.4417 131.429 53.3784 131.715 53.2535C132.002 53.127 132.245 52.9539 132.444 52.7325C132.644 52.5112 132.798 52.2507 132.906 51.9511C133.015 51.6515 133.069 51.3323 133.069 50.9935Z" fill="#8A8C8E"/>
<path d="M138.854 49.3915C138.724 49.1401 138.525 48.9338 138.26 48.7727C137.995 48.6116 137.694 48.5318 137.356 48.5318C137.199 48.5318 137.042 48.5499 136.887 48.5845C136.731 48.6191 136.592 48.6764 136.47 48.7547C136.348 48.8329 136.25 48.9323 136.177 49.0543C136.103 49.1762 136.065 49.3193 136.065 49.4834C136.065 49.7694 136.183 49.9893 136.418 50.1413C136.652 50.2934 137.021 50.4214 137.524 50.5253C138.245 50.6728 138.777 50.8881 139.12 51.1697C139.463 51.4512 139.635 51.8321 139.635 52.3094C139.635 52.6572 139.567 52.9493 139.433 53.1887C139.299 53.4281 139.123 53.6223 138.906 53.7744C138.69 53.9264 138.444 54.0348 138.17 54.0996C137.896 54.1643 137.621 54.1975 137.344 54.1975C136.883 54.1975 136.436 54.1011 136.002 53.9114C135.567 53.7202 135.212 53.4206 134.935 53.0125L135.638 52.4916C135.794 52.7611 136.025 52.9869 136.327 53.1691C136.631 53.3513 136.966 53.4431 137.33 53.4431C137.521 53.4431 137.703 53.4266 137.877 53.3904C138.05 53.3558 138.202 53.2956 138.333 53.2083C138.462 53.1209 138.568 53.011 138.646 52.8755C138.724 52.7415 138.763 52.5744 138.763 52.3741C138.763 52.0535 138.61 51.8126 138.301 51.6515C137.992 51.4904 137.548 51.3413 136.966 51.2013C136.783 51.1576 136.589 51.1034 136.386 51.0387C136.181 50.9739 135.993 50.8776 135.82 50.7526C135.647 50.6276 135.502 50.468 135.391 50.2768C135.278 50.0856 135.221 49.8477 135.221 49.5602C135.221 49.247 135.281 48.9805 135.403 48.7592C135.525 48.5378 135.687 48.3557 135.891 48.2126C136.094 48.0696 136.327 47.9627 136.588 47.8934C136.848 47.8242 137.118 47.7896 137.395 47.7896C137.821 47.7896 138.232 47.8844 138.632 48.0756C139.031 48.2668 139.331 48.5363 139.531 48.8826L138.854 49.39V49.3915Z" fill="#8A8C8E"/>
<path d="M144.767 54.0424H143.738L147.724 44.822H148.635L152.594 54.0424H151.552L150.536 51.6198H145.769L144.767 54.0424ZM146.122 50.7601H150.185L148.154 45.8638L146.123 50.7601H146.122Z" fill="#8A8C8E"/>
<path d="M154.574 47.9461C154.59 48.1118 154.604 48.2939 154.613 48.4927C154.622 48.6929 154.626 48.857 154.626 48.988H154.652C154.825 48.6327 155.108 48.3436 155.498 48.1223C155.89 47.901 156.301 47.7896 156.736 47.7896C157.508 47.7896 158.088 48.0199 158.475 48.4791C158.862 48.9398 159.054 49.5466 159.054 50.3024V54.0409H158.169V50.6683C158.169 50.3476 158.144 50.0555 158.091 49.7965C158.038 49.5361 157.949 49.3132 157.824 49.125C157.698 48.9383 157.529 48.7923 157.317 48.6884C157.105 48.5845 156.837 48.5318 156.516 48.5318C156.281 48.5318 156.054 48.58 155.832 48.6749C155.611 48.7712 155.414 48.9158 155.239 49.1115C155.066 49.3072 154.926 49.5541 154.822 49.8537C154.718 50.1534 154.666 50.5072 154.666 50.9152V54.0409H153.78V49.2876C153.78 49.122 153.776 48.9097 153.767 48.6493C153.758 48.3888 153.746 48.1539 153.728 47.9461H154.574Z" fill="#8A8C8E"/>
<path d="M161.393 55.2665C161.635 55.5797 161.968 55.8431 162.39 56.0614C162.811 56.2783 163.255 56.3867 163.725 56.3867C164.159 56.3867 164.528 56.3234 164.832 56.1985C165.136 56.072 165.381 55.9003 165.568 55.6835C165.755 55.4667 165.892 55.2123 165.977 54.9217C166.065 54.6311 166.107 54.321 166.107 53.9912V52.8454H166.081C165.846 53.2279 165.515 53.523 165.085 53.7308C164.656 53.9385 164.219 54.0439 163.776 54.0439C163.299 54.0439 162.867 53.9656 162.48 53.809C162.093 53.6525 161.763 53.4372 161.491 53.1646C161.217 52.8906 161.004 52.5639 160.852 52.1815C160.7 51.799 160.625 51.3865 160.625 50.9439C160.625 50.5012 160.7 50.1022 160.852 49.7198C161.004 49.3374 161.217 49.0031 161.491 48.7171C161.765 48.431 162.094 48.2051 162.48 48.0395C162.867 47.8754 163.297 47.7926 163.776 47.7926C164.219 47.7926 164.653 47.8965 165.079 48.1058C165.505 48.3135 165.839 48.6132 166.081 49.0046H166.107V47.9492H166.992V53.9927C166.992 54.3225 166.947 54.6748 166.855 55.0482C166.763 55.4216 166.595 55.7648 166.348 56.0765C166.101 56.3897 165.764 56.6486 165.339 56.8579C164.913 57.0657 164.362 57.1711 163.684 57.1711C163.12 57.1711 162.582 57.0627 162.069 56.8459C161.557 56.6291 161.119 56.3294 160.753 55.947L161.391 55.2695L161.393 55.2665ZM161.563 50.9168C161.563 51.2375 161.616 51.5416 161.72 51.8292C161.823 52.1152 161.974 52.3682 162.168 52.585C162.364 52.8018 162.605 52.9734 162.891 53.0999C163.177 53.2264 163.504 53.2881 163.868 53.2881C164.207 53.2881 164.519 53.2309 164.806 53.118C165.092 53.005 165.341 52.8439 165.548 52.6362C165.756 52.4284 165.919 52.1785 166.036 51.8879C166.154 51.5973 166.212 51.2736 166.212 50.9183C166.212 50.5976 166.154 50.2934 166.036 50.0059C165.919 49.7198 165.756 49.4668 165.548 49.25C165.341 49.0332 165.092 48.8601 164.806 48.7291C164.52 48.5981 164.207 48.5334 163.868 48.5334C163.504 48.5334 163.179 48.5981 162.891 48.7291C162.605 48.8586 162.364 49.0332 162.168 49.25C161.973 49.4668 161.823 49.7183 161.72 50.0059C161.616 50.2919 161.563 50.5961 161.563 50.9183V50.9168Z" fill="#8A8C8E"/>
<path d="M174.598 50.8114V51.0071C174.598 51.0764 174.594 51.1502 174.585 51.2285H169.532C169.541 51.5326 169.601 51.8187 169.714 52.0882C169.827 52.3577 169.984 52.591 170.182 52.7913C170.383 52.9915 170.616 53.1496 170.886 53.2671C171.155 53.3845 171.446 53.4432 171.757 53.4432C172.218 53.4432 172.614 53.3363 172.95 53.124C173.284 52.9117 173.538 52.6663 173.712 52.3878L174.376 52.9087C174.011 53.3694 173.609 53.6992 173.171 53.8979C172.733 54.0982 172.262 54.1975 171.757 54.1975C171.306 54.1975 170.887 54.1177 170.5 53.9566C170.113 53.7955 169.782 53.5727 169.503 53.2851C169.225 52.9991 169.006 52.6603 168.845 52.2688C168.684 51.8789 168.604 51.4528 168.604 50.9921C168.604 50.5314 168.683 50.1068 168.839 49.7153C168.996 49.3239 169.213 48.9866 169.49 48.699C169.768 48.413 170.094 48.1886 170.467 48.0275C170.84 47.8664 171.244 47.7866 171.677 47.7866C172.155 47.7866 172.576 47.8664 172.941 48.0275C173.305 48.1886 173.609 48.4054 173.853 48.6795C174.095 48.9535 174.281 49.2727 174.407 49.637C174.534 50.0014 174.595 50.3928 174.595 50.8099L174.598 50.8114ZM173.701 50.5253C173.675 49.9517 173.49 49.4774 173.147 49.0995C172.804 48.7216 172.316 48.5334 171.682 48.5334C171.387 48.5334 171.113 48.5876 170.861 48.696C170.61 48.8044 170.389 48.952 170.197 49.1387C170.006 49.3254 169.854 49.5376 169.741 49.777C169.628 50.0164 169.564 50.2649 169.546 50.5253H173.7H173.701Z" fill="#8A8C8E"/>
<path d="M177.128 54.0425H176.243V44.1958H177.128V54.0425Z" fill="#8A8C8E"/>
<path d="M184.763 50.8114V51.0071C184.763 51.0764 184.759 51.1502 184.75 51.2285H179.697C179.706 51.5326 179.766 51.8187 179.879 52.0882C179.992 52.3577 180.149 52.591 180.347 52.7913C180.548 52.9915 180.781 53.1496 181.051 53.2671C181.32 53.3845 181.611 53.4432 181.924 53.4432C182.385 53.4432 182.78 53.3363 183.115 53.124C183.449 52.9117 183.703 52.6663 183.877 52.3878L184.541 52.9087C184.176 53.3694 183.774 53.6992 183.336 53.8979C182.898 54.0982 182.427 54.1975 181.922 54.1975C181.471 54.1975 181.052 54.1177 180.665 53.9566C180.278 53.7955 179.947 53.5727 179.668 53.2851C179.39 52.9991 179.172 52.6603 179.01 52.2688C178.849 51.8789 178.77 51.4528 178.77 50.9921C178.77 50.5314 178.848 50.1068 179.004 49.7153C179.161 49.3239 179.378 48.9866 179.655 48.699C179.933 48.413 180.259 48.1886 180.632 48.0275C181.005 47.8664 181.409 47.7866 181.844 47.7866C182.321 47.7866 182.743 47.8664 183.107 48.0275C183.472 48.1886 183.776 48.4054 184.02 48.6795C184.262 48.9535 184.447 49.2727 184.574 49.637C184.7 50.0014 184.762 50.3928 184.762 50.8099L184.763 50.8114ZM183.865 50.5253C183.839 49.9517 183.654 49.4774 183.31 49.0995C182.967 48.7216 182.479 48.5334 181.846 48.5334C181.55 48.5334 181.276 48.5876 181.025 48.696C180.774 48.8044 180.552 48.952 180.361 49.1387C180.17 49.3254 180.018 49.5376 179.905 49.777C179.792 50.0164 179.727 50.2649 179.709 50.5253H183.863H183.865Z" fill="#8A8C8E"/>
<path d="M189.704 49.3915C189.575 49.1401 189.376 48.9338 189.111 48.7727C188.846 48.6116 188.545 48.5318 188.206 48.5318C188.05 48.5318 187.893 48.5499 187.738 48.5845C187.581 48.6191 187.443 48.6764 187.321 48.7547C187.199 48.8329 187.101 48.9323 187.027 49.0543C186.954 49.1762 186.916 49.3193 186.916 49.4834C186.916 49.7694 187.033 49.9893 187.268 50.1413C187.503 50.2934 187.872 50.4214 188.375 50.5253C189.096 50.6728 189.627 50.8881 189.971 51.1697C190.314 51.4512 190.486 51.8321 190.486 52.3094C190.486 52.6572 190.418 52.9493 190.284 53.1887C190.148 53.4281 189.974 53.6223 189.757 53.7744C189.54 53.9264 189.295 54.0348 189.021 54.0996C188.747 54.1643 188.471 54.1975 188.194 54.1975C187.733 54.1975 187.286 54.1011 186.853 53.9114C186.418 53.7202 186.062 53.4206 185.785 53.0125L186.488 52.4916C186.645 52.7611 186.875 52.9869 187.178 53.1691C187.482 53.3513 187.816 53.4431 188.181 53.4431C188.372 53.4431 188.554 53.4266 188.727 53.3904C188.9 53.3558 189.052 53.2956 189.183 53.2083C189.313 53.1209 189.418 53.011 189.497 52.8755C189.575 52.7415 189.614 52.5744 189.614 52.3741C189.614 52.0535 189.46 51.8126 189.152 51.6515C188.843 51.4904 188.399 51.3413 187.816 51.2013C187.634 51.1576 187.44 51.1034 187.237 51.0387C187.032 50.9739 186.844 50.8776 186.67 50.7526C186.497 50.6276 186.353 50.468 186.241 50.2768C186.128 50.0856 186.071 49.8477 186.071 49.5602C186.071 49.247 186.131 48.9805 186.253 48.7592C186.375 48.5378 186.538 48.3557 186.741 48.2126C186.944 48.0696 187.178 47.9627 187.438 47.8934C187.699 47.8242 187.968 47.7896 188.245 47.7896C188.671 47.7896 189.082 47.8844 189.483 48.0756C189.882 48.2668 190.182 48.5363 190.382 48.8826L189.704 49.39V49.3915Z" fill="#8A8C8E"/>
<path d="M121.609 22.7843V13.5639H123.85V22.7843H121.609Z" fill="#8A8C8E"/>
<path d="M129.776 22.7844V19.2416C129.776 19.0595 129.761 18.8863 129.731 18.7207C129.701 18.5551 129.651 18.4105 129.582 18.2841C129.513 18.1576 129.415 18.0582 129.288 17.9845C129.162 17.9107 129.004 17.873 128.812 17.873C128.621 17.873 128.454 17.9107 128.311 17.9845C128.168 18.0582 128.048 18.1606 127.953 18.2901C127.856 18.4196 127.786 18.5701 127.737 18.7388C127.689 18.9074 127.665 19.0836 127.665 19.2657V22.7829H125.517V16.2967H127.587V17.1955H127.612C127.691 17.057 127.793 16.92 127.918 16.7845C128.045 16.6505 128.192 16.5345 128.361 16.4397C128.531 16.3448 128.715 16.2665 128.915 16.2048C129.115 16.1446 129.327 16.113 129.553 16.113C129.987 16.113 130.356 16.1913 130.66 16.3479C130.964 16.5044 131.209 16.7062 131.396 16.9531C131.583 17.2 131.717 17.4846 131.8 17.8068C131.882 18.1275 131.923 18.4497 131.923 18.7704V22.7814H129.774L129.776 22.7844Z" fill="#8A8C8E"/>
<path d="M135.784 17.8865V20.3708C135.784 20.6764 135.843 20.9053 135.96 21.0574C136.078 21.2094 136.289 21.2862 136.593 21.2862C136.697 21.2862 136.808 21.2772 136.926 21.2606C137.043 21.2441 137.141 21.217 137.219 21.1823L137.245 22.7452C137.097 22.7979 136.911 22.843 136.685 22.8822C136.459 22.9213 136.233 22.9409 136.007 22.9409C135.572 22.9409 135.208 22.8867 134.913 22.7783C134.617 22.6699 134.381 22.5133 134.203 22.3085C134.026 22.1038 133.898 21.8599 133.819 21.5768C133.741 21.2937 133.702 20.9776 133.702 20.6298V17.888H132.66V16.2996H133.688V14.5938H135.786V16.2996H137.309V17.888H135.786L135.784 17.8865Z" fill="#8A8C8E"/>
<path d="M144.635 19.6195V19.88C144.635 19.9673 144.63 20.0501 144.621 20.1269H139.919C139.936 20.3091 139.991 20.4747 140.082 20.6223C140.174 20.7698 140.289 20.8978 140.434 21.0062C140.577 21.1146 140.738 21.1989 140.916 21.2606C141.093 21.3209 141.279 21.3525 141.47 21.3525C141.809 21.3525 142.095 21.2892 142.33 21.1643C142.564 21.0378 142.754 20.8752 142.903 20.6765L144.388 21.6145C144.084 22.0571 143.682 22.3989 143.183 22.6368C142.683 22.8762 142.104 22.9951 141.444 22.9951C140.958 22.9951 140.497 22.9183 140.064 22.7678C139.63 22.6157 139.249 22.3944 138.924 22.1038C138.599 21.8132 138.343 21.4549 138.156 21.0288C137.969 20.6042 137.876 20.1179 137.876 19.5698C137.876 19.0218 137.968 18.5611 138.15 18.1305C138.332 17.7014 138.579 17.3355 138.892 17.0359C139.205 16.7363 139.574 16.5044 139.999 16.3388C140.425 16.1732 140.884 16.0919 141.38 16.0919C141.875 16.0919 142.295 16.1717 142.695 16.3328C143.094 16.4939 143.438 16.7257 143.724 17.0299C144.01 17.334 144.234 17.7029 144.395 18.1365C144.556 18.5716 144.636 19.0655 144.636 19.621L144.635 19.6195ZM142.667 18.799C142.667 18.4602 142.56 18.1696 142.348 17.9257C142.135 17.6833 141.816 17.5613 141.39 17.5613C141.182 17.5613 140.991 17.5945 140.816 17.6592C140.643 17.7239 140.491 17.8128 140.36 17.9257C140.231 18.0386 140.125 18.1711 140.047 18.3232C139.969 18.4752 139.925 18.6333 139.918 18.799H142.665H142.667Z" fill="#8A8C8E"/>
<path d="M150.033 18.0567C149.937 18.0312 149.845 18.0131 149.753 18.0041C149.661 17.995 149.572 17.9905 149.486 17.9905C149.2 17.9905 148.959 18.0432 148.764 18.1471C148.568 18.251 148.411 18.3759 148.295 18.5235C148.178 18.671 148.094 18.8306 148.041 19.0038C147.988 19.1769 147.963 19.329 147.963 19.4585V22.7829H145.826V16.3042H147.884V17.2422H147.91C148.074 16.9095 148.309 16.6385 148.613 16.4292C148.917 16.2199 149.268 16.1145 149.669 16.1145C149.756 16.1145 149.84 16.119 149.923 16.1281C150.006 16.1371 150.072 16.1491 150.125 16.1672L150.033 18.0552V18.0567Z" fill="#8A8C8E"/>
<path d="M155.176 22.7844V19.2417C155.176 19.0595 155.161 18.8864 155.131 18.7208C155.101 18.5551 155.051 18.4106 154.98 18.2841C154.911 18.1577 154.813 18.0583 154.687 17.9845C154.56 17.9107 154.402 17.8731 154.211 17.8731C154.02 17.8731 153.852 17.9107 153.709 17.9845C153.566 18.0583 153.446 18.1607 153.351 18.2902C153.255 18.4196 153.184 18.5702 153.136 18.7388C153.088 18.9075 153.064 19.0836 153.064 19.2658V22.7829H150.915V16.2967H152.985V17.1956H153.011C153.089 17.0571 153.192 16.92 153.316 16.7845C153.443 16.6505 153.591 16.5346 153.759 16.4398C153.929 16.3449 154.113 16.2666 154.313 16.2049C154.513 16.1447 154.726 16.113 154.952 16.113C155.385 16.113 155.754 16.1913 156.058 16.3479C156.362 16.5045 156.608 16.7063 156.794 16.9532C156.981 17.2001 157.115 17.4847 157.198 17.8069C157.281 18.1276 157.321 18.4498 157.321 18.7704V22.7814H155.173L155.176 22.7844Z" fill="#8A8C8E"/>
<path d="M158.708 17.1834C159.09 16.819 159.534 16.545 160.043 16.3628C160.55 16.1806 161.07 16.0888 161.6 16.0888C162.13 16.0888 162.609 16.1566 162.987 16.2906C163.364 16.4261 163.67 16.6338 163.905 16.9154C164.14 17.1969 164.31 17.5538 164.42 17.9829C164.528 18.412 164.583 18.9224 164.583 19.5126V22.7813H162.628V22.0902H162.589C162.423 22.3597 162.175 22.5675 161.841 22.715C161.507 22.8626 161.144 22.9363 160.754 22.9363C160.493 22.9363 160.224 22.9017 159.947 22.8325C159.668 22.7632 159.415 22.6503 159.185 22.4937C158.955 22.3371 158.766 22.1293 158.619 21.8689C158.471 21.6084 158.397 21.2877 158.397 20.9053C158.397 20.4355 158.525 20.0591 158.781 19.7715C159.037 19.4855 159.367 19.2642 159.771 19.1076C160.174 18.951 160.624 18.8471 161.118 18.7944C161.613 18.7417 162.095 18.7161 162.563 18.7161V18.6122C162.563 18.2915 162.451 18.0551 162.225 17.9031C161.999 17.751 161.722 17.6757 161.391 17.6757C161.086 17.6757 160.793 17.7405 160.511 17.8715C160.228 18.0024 159.987 18.1575 159.789 18.3412L158.708 17.1819V17.1834ZM162.628 19.9567H162.354C162.119 19.9567 161.883 19.9673 161.645 19.9899C161.406 20.0109 161.193 20.0531 161.007 20.1133C160.82 20.1735 160.666 20.2624 160.544 20.3798C160.423 20.4973 160.362 20.6508 160.362 20.842C160.362 20.964 160.391 21.0679 160.447 21.1552C160.502 21.2425 160.575 21.3118 160.662 21.363C160.749 21.4157 160.849 21.4518 160.962 21.4729C161.074 21.494 161.183 21.506 161.287 21.506C161.72 21.506 162.053 21.3871 162.283 21.1477C162.514 20.9083 162.628 20.5861 162.628 20.1781V19.9567Z" fill="#8A8C8E"/>
<path d="M168.387 17.8866V20.3709C168.387 20.6765 168.446 20.9054 168.564 21.0574C168.681 21.2095 168.892 21.2863 169.194 21.2863C169.298 21.2863 169.41 21.2772 169.527 21.2607C169.645 21.2441 169.742 21.217 169.821 21.1824L169.846 22.7452C169.699 22.7979 169.512 22.8431 169.286 22.8822C169.06 22.9214 168.835 22.9409 168.609 22.9409C168.175 22.9409 167.809 22.8867 167.514 22.7783C167.219 22.6699 166.983 22.5134 166.805 22.3086C166.627 22.1038 166.499 21.8599 166.421 21.5769C166.343 21.2938 166.304 20.9776 166.304 20.6298V17.8881H165.262V16.2997H166.29V14.5938H168.387V16.2997H169.911V17.8881H168.387V17.8866Z" fill="#8A8C8E"/>
<path d="M173.25 14.2264C173.25 14.392 173.217 14.5456 173.153 14.6886C173.088 14.8317 173 14.9551 172.892 15.0605C172.784 15.1644 172.653 15.2472 172.501 15.3074C172.349 15.3677 172.19 15.3993 172.025 15.3993C171.677 15.3993 171.386 15.2849 171.153 15.0545C170.918 14.8241 170.801 14.5486 170.801 14.2279C170.801 14.0713 170.831 13.9223 170.893 13.7777C170.953 13.6347 171.04 13.5112 171.153 13.4058C171.266 13.302 171.395 13.2176 171.545 13.1514C171.692 13.0867 171.853 13.0535 172.026 13.0535C172.2 13.0535 172.35 13.0836 172.502 13.1439C172.654 13.2041 172.784 13.2869 172.894 13.3908C173.002 13.4947 173.089 13.6181 173.154 13.7627C173.219 13.9057 173.252 14.0608 173.252 14.2249L173.25 14.2264ZM170.957 22.7843V16.2981H173.094V22.7843H170.957Z" fill="#8A8C8E"/>
<path d="M181.465 19.5141C181.465 20.0441 181.369 20.5229 181.179 20.9535C180.988 21.3826 180.727 21.7485 180.398 22.0481C180.068 22.3477 179.685 22.5796 179.252 22.7452C178.817 22.9108 178.353 22.9921 177.858 22.9921C177.362 22.9921 176.909 22.9093 176.471 22.7452C176.033 22.5811 175.65 22.3477 175.325 22.0481C175 21.7485 174.741 21.3841 174.55 20.9535C174.359 20.5244 174.264 20.0441 174.264 19.5141C174.264 18.9841 174.359 18.5069 174.55 18.0808C174.741 17.6562 174.998 17.2948 175.325 16.9997C175.65 16.7046 176.033 16.4788 176.471 16.3222C176.909 16.1656 177.371 16.0873 177.858 16.0873C178.344 16.0873 178.817 16.1656 179.252 16.3222C179.685 16.4788 180.068 16.7046 180.398 16.9997C180.727 17.2948 180.988 17.6562 181.179 18.0808C181.37 18.5069 181.465 18.9841 181.465 19.5141ZM179.407 19.5141C179.407 19.3063 179.372 19.1016 179.303 18.9013C179.234 18.7011 179.134 18.5264 179.003 18.3744C178.874 18.2223 178.713 18.0988 178.522 18.0025C178.33 17.9076 178.109 17.8595 177.858 17.8595C177.606 17.8595 177.385 17.9076 177.194 18.0025C177.002 18.0973 176.844 18.2223 176.718 18.3744C176.591 18.5264 176.496 18.7026 176.432 18.9013C176.367 19.1016 176.334 19.3048 176.334 19.5141C176.334 19.7234 176.367 19.9267 176.432 20.1269C176.496 20.3272 176.594 20.5063 176.725 20.6674C176.855 20.8285 177.016 20.9565 177.207 21.0514C177.398 21.1477 177.62 21.1944 177.871 21.1944C178.123 21.1944 178.344 21.1462 178.535 21.0514C178.726 20.9565 178.887 20.8285 179.017 20.6674C179.148 20.5063 179.244 20.3272 179.31 20.1269C179.375 19.9267 179.408 19.7234 179.408 19.5141H179.407Z" fill="#8A8C8E"/>
<path d="M186.928 22.7844V19.2417C186.928 19.0595 186.913 18.8864 186.883 18.7208C186.853 18.5551 186.803 18.4106 186.732 18.2841C186.663 18.1577 186.565 18.0583 186.439 17.9845C186.312 17.9107 186.154 17.8731 185.963 17.8731C185.772 17.8731 185.604 17.9107 185.461 17.9845C185.318 18.0583 185.198 18.1607 185.103 18.2902C185.007 18.4196 184.936 18.5702 184.888 18.7388C184.84 18.9075 184.816 19.0836 184.816 19.2658V22.7829H182.667V16.2967H184.737V17.1956H184.763C184.841 17.0571 184.943 16.92 185.068 16.7845C185.195 16.6505 185.342 16.5346 185.511 16.4398C185.681 16.3449 185.865 16.2666 186.065 16.2049C186.265 16.1447 186.478 16.113 186.704 16.113C187.137 16.113 187.506 16.1913 187.81 16.3479C188.114 16.5045 188.36 16.7063 188.546 16.9532C188.733 17.2001 188.867 17.4847 188.95 17.8069C189.033 18.1276 189.073 18.4498 189.073 18.7704V22.7814H186.925L186.928 22.7844Z" fill="#8A8C8E"/>
<path d="M190.46 17.1834C190.842 16.8191 191.287 16.5451 191.796 16.3629C192.303 16.1807 192.822 16.0889 193.352 16.0889C193.882 16.0889 194.361 16.1566 194.739 16.2906C195.117 16.4261 195.423 16.6339 195.657 16.9155C195.892 17.197 196.064 17.5538 196.172 17.9829C196.281 18.412 196.335 18.9224 196.335 19.5126V22.7813H194.382V22.0903H194.343C194.177 22.3598 193.929 22.5675 193.595 22.7151C193.26 22.8626 192.898 22.9364 192.508 22.9364C192.247 22.9364 191.978 22.9018 191.701 22.8325C191.422 22.7633 191.169 22.6503 190.939 22.4938C190.708 22.3372 190.52 22.1294 190.373 21.8689C190.225 21.6085 190.151 21.2878 190.151 20.9053C190.151 20.4356 190.279 20.0592 190.535 19.7716C190.791 19.4855 191.121 19.2642 191.525 19.1076C191.928 18.951 192.378 18.8472 192.872 18.7945C193.367 18.7418 193.849 18.7162 194.317 18.7162V18.6123C194.317 18.2916 194.204 18.0552 193.979 17.9031C193.753 17.7511 193.474 17.6758 193.145 17.6758C192.84 17.6758 192.547 17.7405 192.265 17.8715C191.984 18.0025 191.743 18.1576 191.543 18.3413L190.462 17.1819L190.46 17.1834ZM194.381 19.9568H194.107C193.872 19.9568 193.635 19.9673 193.397 19.9899C193.158 20.011 192.946 20.0532 192.759 20.1134C192.572 20.1736 192.419 20.2624 192.297 20.3799C192.175 20.4973 192.115 20.6509 192.115 20.8421C192.115 20.9641 192.143 21.0679 192.199 21.1553C192.255 21.2426 192.327 21.3118 192.414 21.363C192.502 21.4157 192.601 21.4519 192.714 21.4729C192.827 21.494 192.935 21.5061 193.039 21.5061C193.473 21.5061 193.806 21.3871 194.036 21.1477C194.266 20.9083 194.381 20.5861 194.381 20.1781V19.9568Z" fill="#8A8C8E"/>
<path d="M197.825 22.7844V12.9377H200.001V22.7844H197.825Z" fill="#8A8C8E"/>
<path d="M126.48 31.5878C126.288 31.3454 126.038 31.1512 125.731 31.0082C125.423 30.8651 125.126 30.7929 124.838 30.7929C124.691 30.7929 124.54 30.8064 124.39 30.832C124.238 30.8576 124.101 30.9088 123.98 30.9811C123.858 31.0548 123.756 31.1512 123.675 31.2671C123.592 31.3846 123.551 31.5336 123.551 31.7158C123.551 31.8724 123.584 32.0019 123.649 32.1073C123.714 32.2112 123.81 32.303 123.935 32.3813C124.062 32.4596 124.211 32.5303 124.384 32.5966C124.557 32.6613 124.753 32.7291 124.969 32.7983C125.283 32.9022 125.608 33.0182 125.947 33.1431C126.285 33.2696 126.594 33.4367 126.871 33.6445C127.15 33.8523 127.378 34.1112 127.561 34.4199C127.743 34.7285 127.835 35.1125 127.835 35.5732C127.835 36.1032 127.737 36.5609 127.541 36.9478C127.345 37.3348 127.083 37.654 126.754 37.9054C126.424 38.1568 126.046 38.3435 125.62 38.4655C125.194 38.5874 124.756 38.6477 124.304 38.6477C123.644 38.6477 123.006 38.5317 122.389 38.3029C121.771 38.0725 121.26 37.7458 120.852 37.3197L122.311 35.8352C122.536 36.1137 122.833 36.3456 123.203 36.5323C123.572 36.719 123.94 36.8123 124.304 36.8123C124.47 36.8123 124.629 36.7943 124.786 36.7596C124.942 36.725 125.079 36.6678 125.195 36.591C125.313 36.5127 125.406 36.4088 125.475 36.2778C125.545 36.1468 125.579 35.9918 125.579 35.8096C125.579 35.6274 125.536 35.4889 125.448 35.3669C125.361 35.245 125.237 35.1351 125.076 35.0342C124.915 34.9348 124.716 34.843 124.477 34.7602C124.238 34.6774 123.967 34.5885 123.663 34.4937C123.367 34.3988 123.078 34.2859 122.797 34.1549C122.515 34.0254 122.262 33.8583 122.041 33.6535C121.82 33.4503 121.642 33.2019 121.507 32.9113C121.373 32.6207 121.305 32.2669 121.305 31.8498C121.305 31.3379 121.409 30.8998 121.618 30.5339C121.826 30.1695 122.1 29.8699 122.438 29.635C122.777 29.4002 123.16 29.2285 123.584 29.1201C124.009 29.0117 124.439 28.9575 124.873 28.9575C125.394 28.9575 125.925 29.0524 126.469 29.2436C127.011 29.4348 127.487 29.7164 127.895 30.0897L126.475 31.5878H126.48Z" fill="#8A8C8E"/>
<path d="M133.501 34.0239C133.379 33.8673 133.215 33.7423 133.006 33.646C132.798 33.5511 132.584 33.5029 132.368 33.5029C132.151 33.5029 131.938 33.5481 131.755 33.64C131.573 33.7303 131.416 33.8522 131.287 34.0043C131.157 34.1564 131.055 34.3325 130.981 34.5313C130.907 34.7315 130.87 34.9438 130.87 35.1697C130.87 35.3955 130.904 35.6078 130.973 35.808C131.043 36.0083 131.145 36.1844 131.279 36.335C131.413 36.4871 131.574 36.606 131.761 36.6933C131.948 36.7807 132.158 36.8228 132.392 36.8228C132.608 36.8228 132.824 36.7822 133.036 36.6994C133.248 36.6166 133.42 36.4976 133.551 36.341L134.736 37.7864C134.466 38.0469 134.119 38.2517 133.694 38.3992C133.268 38.5468 132.816 38.6205 132.339 38.6205C131.827 38.6205 131.348 38.5422 130.904 38.3857C130.46 38.2291 130.075 38.0017 129.746 37.7021C129.418 37.4025 129.161 37.0396 128.974 36.6151C128.786 36.189 128.692 35.7072 128.692 35.1697C128.692 34.6322 128.786 34.1624 128.974 33.7363C129.162 33.3117 129.42 32.9489 129.746 32.6493C130.073 32.3496 130.46 32.1193 130.904 31.9582C131.348 31.7971 131.823 31.7173 132.325 31.7173C132.56 31.7173 132.792 31.7384 133.023 31.782C133.253 31.8257 133.474 31.8844 133.687 31.9582C133.899 32.032 134.095 32.1238 134.272 32.2322C134.45 32.3406 134.605 32.4596 134.734 32.5905L133.497 34.0239H133.501Z" fill="#8A8C8E"/>
<path d="M139.779 38.4127V34.8956C139.779 34.7134 139.765 34.5402 139.74 34.3746C139.714 34.209 139.663 34.0645 139.591 33.938C139.517 33.8115 139.419 33.7122 139.297 33.6384C139.175 33.5646 139.019 33.527 138.829 33.527C138.456 33.527 138.17 33.6595 137.969 33.9244C137.769 34.1894 137.67 34.5177 137.67 34.9076V38.4112H135.533V28.5645H137.67V32.7455H137.695C137.843 32.4851 138.078 32.2532 138.398 32.0484C138.719 31.8452 139.106 31.7428 139.558 31.7428C140.009 31.7428 140.372 31.8211 140.672 31.9777C140.971 32.1343 141.214 32.336 141.401 32.5829C141.587 32.8299 141.721 33.1144 141.804 33.4366C141.887 33.7573 141.928 34.0795 141.928 34.4002V38.4112H139.779V38.4127Z" fill="#8A8C8E"/>
<path d="M150.288 35.1441C150.288 35.674 150.192 36.1528 150.002 36.5834C149.811 37.0125 149.551 37.3784 149.221 37.678C148.891 37.9776 148.509 38.2095 148.075 38.3751C147.641 38.5407 147.176 38.622 146.681 38.622C146.185 38.622 145.732 38.5392 145.294 38.3751C144.856 38.211 144.474 37.9776 144.148 37.678C143.823 37.3784 143.564 37.014 143.373 36.5834C143.182 36.1543 143.087 35.674 143.087 35.1441C143.087 34.6141 143.182 34.1368 143.373 33.7107C143.564 33.2861 143.822 32.9248 144.148 32.6297C144.474 32.3346 144.856 32.1087 145.294 31.9522C145.732 31.7956 146.195 31.7173 146.681 31.7173C147.167 31.7173 147.64 31.7956 148.075 31.9522C148.509 32.1087 148.891 32.3346 149.221 32.6297C149.551 32.9248 149.811 33.2861 150.002 33.7107C150.193 34.1368 150.288 34.6141 150.288 35.1441ZM148.23 35.1441C148.23 34.9363 148.195 34.7315 148.126 34.5313C148.057 34.331 147.958 34.1564 147.827 34.0043C147.697 33.8522 147.536 33.7288 147.345 33.6324C147.154 33.5376 146.932 33.4894 146.681 33.4894C146.429 33.4894 146.208 33.5376 146.017 33.6324C145.826 33.7273 145.668 33.8522 145.541 34.0043C145.415 34.1564 145.32 34.3325 145.255 34.5313C145.19 34.7315 145.157 34.9348 145.157 35.1441C145.157 35.3533 145.19 35.5566 145.255 35.7569C145.32 35.9571 145.418 36.1363 145.549 36.2974C145.678 36.4585 145.839 36.5864 146.03 36.6813C146.222 36.7777 146.443 36.8243 146.694 36.8243C146.946 36.8243 147.167 36.7762 147.358 36.6813C147.55 36.5864 147.711 36.4585 147.84 36.2974C147.971 36.1363 148.067 35.9571 148.134 35.7569C148.198 35.5566 148.232 35.3533 148.232 35.1441H148.23Z" fill="#8A8C8E"/>
<path d="M158.352 35.1439C158.352 35.6739 158.255 36.1527 158.066 36.5833C157.874 37.0124 157.614 37.3783 157.284 37.6779C156.955 37.9775 156.572 38.2094 156.139 38.375C155.705 38.5406 155.24 38.6219 154.744 38.6219C154.249 38.6219 153.796 38.5391 153.358 38.375C152.919 38.2109 152.537 37.9775 152.212 37.6779C151.887 37.3783 151.628 37.0139 151.436 36.5833C151.245 36.1542 151.15 35.6739 151.15 35.1439C151.15 34.614 151.245 34.1367 151.436 33.7106C151.628 33.286 151.885 32.9247 152.212 32.6296C152.537 32.3345 152.919 32.1086 153.358 31.952C153.796 31.7955 154.258 31.7172 154.744 31.7172C155.231 31.7172 155.703 31.7955 156.139 31.952C156.572 32.1086 156.955 32.3345 157.284 32.6296C157.614 32.9247 157.874 33.286 158.066 33.7106C158.257 34.1367 158.352 34.614 158.352 35.1439ZM156.294 35.1439C156.294 34.9362 156.259 34.7314 156.19 34.5312C156.12 34.3309 156.021 34.1563 155.89 34.0042C155.761 33.8521 155.599 33.7287 155.408 33.6323C155.217 33.5375 154.996 33.4893 154.744 33.4893C154.493 33.4893 154.272 33.5375 154.08 33.6323C153.889 33.7272 153.731 33.8521 153.605 34.0042C153.478 34.1563 153.383 34.3324 153.318 34.5312C153.254 34.7314 153.221 34.9347 153.221 35.1439C153.221 35.3532 153.254 35.5565 153.318 35.7567C153.383 35.957 153.481 36.1361 153.612 36.2972C153.742 36.4583 153.903 36.5863 154.094 36.6812C154.285 36.7775 154.506 36.8242 154.758 36.8242C155.009 36.8242 155.231 36.776 155.422 36.6812C155.613 36.5863 155.774 36.4583 155.904 36.2972C156.035 36.1361 156.131 35.957 156.197 35.7567C156.262 35.5565 156.295 35.3532 156.295 35.1439H156.294Z" fill="#8A8C8E"/>
<path d="M159.582 38.4126V28.5659H161.758V38.4126H159.582Z" fill="#8A8C8E"/>
<path d="M7.87889 54.0426H0C0 56.9198 0.225842 59.7429 0.657954 62.4981L8.44199 61.265C8.07161 58.9118 7.87738 56.4998 7.87738 54.0426" fill="#2B367C"/>
<path d="M8.44199 46.8202L0.657954 45.5871C0.224337 48.3424 0 51.1654 0 54.0426H7.87889C7.87889 51.5855 8.07311 49.1735 8.44199 46.8202Z" fill="#007344"/>
<path d="M10.1298 68.3099L2.63184 70.746C3.51262 73.4576 4.60118 76.0759 5.88096 78.5812L12.9031 75.0039C11.8101 72.8644 10.8826 70.6271 10.1313 68.3099" fill="#6DACDE"/>
<path d="M16.6961 81.1753L10.3184 85.8081C11.9866 88.0997 13.8295 90.2557 15.8289 92.2537L21.3997 86.6829C19.6923 84.9755 18.119 83.1326 16.6946 81.1738" fill="#20A07D"/>
<path d="M12.9021 75.0039L5.87988 78.5812C7.1717 81.1122 8.65774 83.5287 10.3184 85.8082L16.6962 81.1754C15.2779 79.2272 14.0072 77.166 12.9036 75.0039" fill="#BE1E32"/>
<path d="M33.0797 12.9017L29.5023 5.87952C26.9714 7.17134 24.5564 8.65738 22.2754 10.3181L26.9082 16.6959C28.8564 15.2776 30.9176 14.0068 33.0812 12.9032" fill="#007344"/>
<path d="M10.1295 39.7737L2.63154 37.3376C1.76581 40.0026 1.10334 42.7579 0.65918 45.5869L8.44322 46.82C8.82263 44.4035 9.39175 42.0502 10.131 39.7752" fill="#EF4044"/>
<path d="M21.3997 21.3994L15.8289 15.8286C13.8295 17.8281 11.9866 19.9841 10.3184 22.2757L16.6961 26.9084C18.1205 24.9511 19.6923 23.1083 21.4012 21.3994" fill="#62BB46"/>
<path d="M16.6962 26.9084L10.3184 22.2756C8.65774 24.5566 7.17321 26.9717 5.87988 29.5026L12.9021 33.0799C14.0057 30.9179 15.2764 28.8552 16.6947 26.9069" fill="#FDB933"/>
<path d="M12.9012 33.08L5.879 29.5027C4.59923 32.008 3.51067 34.6263 2.62988 37.3379L10.1279 39.774C10.8807 37.4569 11.8081 35.2195 12.8997 33.08" fill="#BE1E32"/>
<path d="M95.1816 75.0038L102.204 78.5811C103.484 76.0758 104.572 73.4575 105.453 70.7459L97.9535 68.3098C97.2007 70.6255 96.2732 72.8643 95.1816 75.0038Z" fill="#20A07D"/>
<path d="M91.3896 81.1768L97.7674 85.8096C99.4281 83.5286 100.913 81.1136 102.206 78.5827L95.1838 75.0053C94.0802 77.1674 92.8079 79.2301 91.3912 81.1783" fill="#62BB46"/>
<path d="M86.6846 86.6843L92.2554 92.2551C94.2548 90.2556 96.0977 88.0996 97.7659 85.808L91.3881 81.1752C89.9638 83.1325 88.3919 84.9754 86.6846 86.6828" fill="#BE1E32"/>
<path d="M54.043 100.205V108.084C56.9202 108.084 59.7432 107.858 62.4985 107.426L61.2654 99.6416C58.9121 100.012 56.5001 100.205 54.043 100.205Z" fill="#EF4044"/>
<path d="M75.0035 95.1821L78.5808 102.204C81.1117 100.912 83.5268 99.4264 85.8078 97.7657L81.175 91.3879C79.2267 92.8062 77.1655 94.077 75.002 95.1806" fill="#FFE72D"/>
<path d="M33.0803 95.1819L29.5029 102.204C32.0083 103.484 34.6265 104.572 37.3382 105.453L39.7742 97.9552C37.4571 97.2024 35.2198 96.275 33.0803 95.1819Z" fill="#007344"/>
<path d="M39.774 97.9538L37.3379 105.452C40.0028 106.317 42.7581 106.98 45.5872 107.424L46.8203 99.6401C44.4037 99.2606 42.0505 98.6915 39.774 97.9523" fill="#2B367C"/>
<path d="M61.2646 99.6416L62.4977 107.426C65.3268 106.981 68.0821 106.318 70.747 105.453L68.3109 97.9553C66.0344 98.6946 63.6812 99.2622 61.2646 99.6431" fill="#000810"/>
<path d="M68.3096 97.9539L70.7457 105.452C73.4573 104.571 76.0755 103.483 78.5809 102.203L75.0035 95.1805C72.8641 96.2736 70.6267 97.2011 68.3096 97.9524" fill="#FDB933"/>
<path d="M39.7742 10.1298L37.3382 2.63184C34.6265 3.51262 32.0083 4.60118 29.5029 5.88096L33.0803 12.9031C35.2198 11.8101 37.4571 10.8826 39.7742 10.1313" fill="#FDB933"/>
<path d="M81.1764 16.696L85.8092 10.3182C83.5282 8.6575 81.1132 7.17296 78.5822 5.87964L75.0049 12.9018C77.1669 14.0054 79.2281 15.2762 81.1779 16.6945" fill="#FDB933"/>
<path d="M68.31 10.1297L70.746 2.63178C68.0811 1.76605 65.3258 1.10358 62.4968 0.659424L61.2637 8.44346C63.6802 8.82288 66.0335 9.392 68.31 10.1313" fill="#BE1E32"/>
<path d="M75.0035 12.9016L78.5809 5.87937C76.0755 4.59959 73.4573 3.51103 70.7457 2.63025L68.3096 10.1282C70.6267 10.881 72.8641 11.8085 75.0035 12.9001" fill="#6DACDE"/>
<path d="M46.8203 8.44199L45.5872 0.657959C42.7581 1.10212 40.0028 1.76609 37.3379 2.63032L39.774 10.1283C42.0505 9.38903 44.4037 8.82141 46.8203 8.44049" fill="#000810"/>
<path d="M61.2654 8.44199L62.4985 0.657954C59.7432 0.224337 56.9202 0 54.043 0V7.87889C56.5001 7.87889 58.9121 8.07311 61.2654 8.4435" fill="#2B367C"/>
<path d="M99.6414 46.82L107.425 45.5869C106.981 42.7579 106.319 40.0026 105.453 37.3376L97.9551 39.7737C98.6943 42.0502 99.262 44.4035 99.6429 46.82" fill="#007344"/>
<path d="M100.207 54.0427H108.086C108.086 51.167 107.86 48.3424 107.428 45.5872L99.6436 46.8203C100.014 49.1735 100.207 51.5855 100.207 54.0427Z" fill="#0061AF"/>
<path d="M97.955 39.774L105.453 37.3379C104.572 34.6263 103.484 32.008 102.204 29.5027L95.1816 33.08C96.2747 35.2195 97.2022 37.4569 97.955 39.774Z" fill="#000810"/>
<path d="M91.3891 26.9084L97.7669 22.2757C96.0987 19.9841 94.2558 17.8281 92.2563 15.8286L86.6855 21.3994C88.3929 23.1068 89.9663 24.9511 91.3906 26.9084" fill="#62BB46"/>
<path d="M95.1818 33.0799L102.204 29.5026C100.912 26.9717 99.4262 24.5551 97.7655 22.2756L91.3877 26.9084C92.806 28.8567 94.0767 30.9179 95.1803 33.0814" fill="#FFE72D"/>
<path d="M59.8545 90.7404L61.0876 98.5305C63.4454 98.1601 65.7399 97.606 67.9622 96.8848L65.5246 89.3839C63.6923 89.9786 61.7982 90.4363 59.8545 90.7419" fill="#62BB46"/>
<path d="M70.9111 87.151L74.4915 94.1792C76.6009 93.1027 78.6124 91.8621 80.514 90.4784L75.8782 84.0991C74.3108 85.2404 72.6501 86.2642 70.9111 87.151Z" fill="#EF4044"/>
<path d="M75.8799 84.0976L80.5157 90.4769C82.4248 89.0872 84.224 87.553 85.8892 85.8878L80.3124 80.311C78.9378 81.6856 77.4548 82.9503 75.8799 84.0976Z" fill="#BE1E32"/>
<path d="M65.5244 89.3825L67.962 96.8835C70.2219 96.1487 72.4051 95.2438 74.4934 94.1779L70.913 87.1497C69.1906 88.0289 67.3899 88.7757 65.5259 89.381" fill="#20A07D"/>
<path d="M42.5597 89.3824L40.1221 96.8833C42.3429 97.6045 44.6389 98.1586 46.9967 98.529L48.2313 90.7389C46.2861 90.4333 44.3935 89.9756 42.5612 89.3809" fill="#0061AF"/>
<path d="M48.2292 90.7405L46.9961 98.5306C49.2922 98.8919 51.6454 99.0801 54.0424 99.0801V91.1937C52.0655 91.1937 50.1233 91.0371 48.2307 90.7405" fill="#6DACDE"/>
<path d="M37.1722 87.1511L33.5918 94.1793C35.6801 95.2453 37.8617 96.1502 40.1232 96.8834L42.5608 89.3824C40.6968 88.7772 38.8961 88.0304 37.1737 87.1511" fill="#FDB933"/>
<path d="M91.1934 54.0426C91.1934 56.0195 91.0368 57.9618 90.7402 59.8543L98.5288 61.0874C98.8901 58.7914 99.0783 56.4396 99.0783 54.0411H91.1919L91.1934 54.0426Z" fill="#2B367C"/>
<path d="M89.3824 65.5244L96.8833 67.962C97.6045 65.7413 98.1586 63.4452 98.529 61.0874L90.7389 59.8528C90.4333 61.798 89.9756 63.6906 89.3809 65.5229" fill="#FFE72D"/>
<path d="M84.0996 75.8799L90.4789 80.5157C91.8626 78.6141 93.1032 76.6026 94.1797 74.4932L87.1515 70.9128C86.2632 72.6533 85.2409 74.3125 84.0996 75.8799Z" fill="#FDB933"/>
<path d="M80.3125 80.3125L85.8893 85.8893C87.556 84.2226 89.0887 82.4249 90.4784 80.5158L84.0991 75.88C82.9518 77.4549 81.6871 78.9379 80.3125 80.3125Z" fill="#0061AF"/>
<path d="M18.7013 42.5593L11.2003 40.1217C10.4791 42.3425 9.92507 44.6386 9.55469 46.9948L17.3447 48.2294C17.6504 46.2857 18.1081 44.3916 18.7028 42.5593" fill="#62BB46"/>
<path d="M87.1511 37.1722L94.1778 33.5918C93.1012 31.4824 91.8606 29.4709 90.477 27.5693L84.0977 32.2051C85.2389 33.774 86.2612 35.4332 87.1511 37.1722Z" fill="#FDB933"/>
<path d="M80.3129 27.7711L85.8898 22.1943C84.223 20.5291 82.4253 18.9949 80.5147 17.6052L75.8789 23.9845C77.4538 25.1303 78.9383 26.3965 80.3129 27.7711Z" fill="#2B367C"/>
<path d="M32.2046 23.986L27.5689 17.6052C25.6597 18.9949 23.8605 20.5291 22.1953 22.1958L27.7721 27.7727C29.1467 26.398 30.6298 25.1333 32.2046 23.986Z" fill="#BE1E32"/>
<path d="M89.3827 42.5592L96.8837 40.1217C96.1504 37.8617 95.2441 35.6786 94.1796 33.5918L87.1514 37.1722C88.0306 38.8946 88.7774 40.6953 89.3827 42.5592Z" fill="#0061AF"/>
<path d="M84.0977 32.2052L90.477 27.5694C89.0873 25.6603 87.5531 23.8611 85.8864 22.1959L80.3096 27.7727C81.6842 29.1473 82.9489 30.6303 84.0962 32.2052" fill="#BE1E32"/>
<path d="M70.9115 20.9325L74.4919 13.9043C72.4036 12.8383 70.2219 11.9334 67.962 11.2002L65.5244 18.7012C67.3884 19.3064 69.1891 20.0532 70.9115 20.9325Z" fill="#EF4044"/>
<path d="M54.0424 16.89V9.00354C51.6454 9.00354 49.2922 9.19325 46.9961 9.55309L48.2292 17.3431C50.1233 17.0465 52.064 16.89 54.0424 16.89Z" fill="#FDB933"/>
<path d="M65.5241 18.7013L67.9617 11.2003C65.7409 10.4791 63.4449 9.92507 61.0886 9.55469L59.8555 17.3447C61.7992 17.6504 63.6933 18.1081 65.5256 18.7028" fill="#007344"/>
<path d="M59.8542 17.3448L61.0873 9.55474C58.7912 9.19339 56.438 9.00519 54.041 9.00519V16.8916C56.0194 16.8916 57.9601 17.0482 59.8542 17.3448Z" fill="#0061AF"/>
<path d="M27.7721 80.3125L22.1953 85.8893C23.862 87.556 25.6597 89.0887 27.5689 90.4784L32.2046 84.0991C30.6298 82.9518 29.1452 81.6871 27.7721 80.3125Z" fill="#62BB46"/>
<path d="M20.9325 70.9115L13.9043 74.4919C14.9808 76.6012 16.2214 78.6127 17.6051 80.5143L23.9844 75.8785C22.8431 74.3112 21.8193 72.6505 20.931 70.9115" fill="#EF4044"/>
<path d="M23.9857 75.8801L17.6064 80.5159C18.9961 82.425 20.5304 84.2227 22.1956 85.8895L27.7724 80.3127C26.3977 78.938 25.133 77.455 23.9857 75.8801Z" fill="#FFE72D"/>
<path d="M90.7404 48.2294L98.5304 46.9963C98.16 44.6386 97.606 42.344 96.8848 40.1217L89.3838 42.5593C89.9785 44.3916 90.4362 46.2857 90.7419 48.2294" fill="#6DACDE"/>
<path d="M18.7012 65.5244L11.2002 67.962C11.9349 70.2219 12.8398 72.4051 13.9043 74.4919L20.9325 70.9115C20.0532 69.1891 19.3064 67.3884 18.7012 65.5244Z" fill="#007344"/>
<path d="M32.2051 84.0977L27.5693 90.477C29.4694 91.8606 31.4824 93.0997 33.5918 94.1778L37.1722 87.1495C35.4317 86.2612 33.7725 85.2374 32.2051 84.0977Z" fill="#000810"/>
<path d="M17.3447 59.8542L9.55469 61.0873C9.92507 63.4451 10.4791 65.7397 11.2003 67.962L18.7013 65.5244C18.1066 63.6921 17.6489 61.798 17.3432 59.8542" fill="#000810"/>
<path d="M27.7724 27.7726L22.1956 22.1958C20.5288 23.8625 18.9961 25.6602 17.6064 27.5693L23.9857 32.2051C25.133 30.6303 26.3977 29.1472 27.7724 27.7726Z" fill="#2B367C"/>
<path d="M42.5592 18.7012L40.1217 11.2002C37.8617 11.9334 35.6786 12.8383 33.5918 13.9058L37.1722 20.9325C38.8946 20.0532 40.6953 19.3064 42.5592 18.7012Z" fill="#62BB46"/>
<path d="M20.9325 37.1722L13.9043 33.5918C12.8383 35.6801 11.9334 37.8632 11.2002 40.1232L18.7012 42.5608C19.3064 40.6968 20.0532 38.8961 20.9325 37.1737" fill="#6DACDE"/>
<path d="M41.2616 28.9606L37.6813 21.9324C35.9935 22.7936 34.384 23.7858 32.8633 24.8924L37.4991 31.2732C38.687 30.409 39.9442 29.6336 41.2616 28.9606Z" fill="#0061AF"/>
<path d="M28.9594 41.2615L21.9312 37.6812C21.079 39.3509 20.3548 41.0974 19.7676 42.9056L27.2686 45.3432C27.7278 43.931 28.2924 42.5669 28.9594 41.2615Z" fill="#FDB933"/>
<path d="M37.4988 31.2731L32.863 24.8923C31.3348 26.005 29.8969 27.2321 28.5645 28.5645L34.1413 34.1413C35.1831 33.0994 36.3063 32.1419 37.5003 31.2731" fill="#007344"/>
<path d="M58.4449 26.2413L59.678 18.4512C57.8412 18.1622 55.9592 18.0116 54.041 18.0116V25.898C55.5391 25.898 57.0101 26.017 58.4449 26.2413Z" fill="#62BB46"/>
<path d="M54.0423 25.8967V18.0103C52.1241 18.0103 50.2421 18.1623 48.4053 18.4499L49.6384 26.24C51.0732 26.0141 52.5442 25.8967 54.0423 25.8967Z" fill="#20A07D"/>
<path d="M49.6384 26.2415L48.4053 18.4514C46.5188 18.748 44.6834 19.1907 42.9053 19.7688L45.3429 27.2698C46.731 26.8196 48.1659 26.4733 49.6384 26.2415Z" fill="#000810"/>
<path d="M27.2695 62.7406L19.7686 65.1782C20.3557 66.9864 21.0799 68.733 21.9336 70.4027L28.9618 66.8223C28.2964 65.517 27.7303 64.1529 27.271 62.7406" fill="#2B367C"/>
<path d="M34.1403 73.9438L28.5635 79.5206C29.8959 80.8531 31.3353 82.0802 32.862 83.1928L37.4978 76.8136C36.3038 75.9448 35.1807 74.9872 34.1403 73.9454" fill="#20A07D"/>
<path d="M79.1251 41.2614L86.1518 37.681C85.2906 35.9932 84.2984 34.3837 83.1918 32.863L76.8125 37.4988C77.6767 38.6868 78.4521 39.9439 79.1251 41.2614Z" fill="#EF4044"/>
<path d="M28.9589 66.8223L21.9307 70.4027C22.7919 72.0905 23.7841 73.7 24.8907 75.2207L31.27 70.5864C30.4058 69.3984 29.6304 68.1412 28.9574 66.8238" fill="#FDB933"/>
<path d="M25.8962 54.0425H18.0098C18.0098 55.9606 18.1603 57.8427 18.4494 59.6795L26.2395 58.4449C26.0136 57.01 25.8962 55.5406 25.8962 54.0425Z" fill="#6DACDE"/>
<path d="M26.2414 49.6386L18.4514 48.404C18.1623 50.2408 18.0117 52.1229 18.0117 54.041H25.8981C25.8981 52.5429 26.0171 51.0719 26.2414 49.6371" fill="#FFE72D"/>
<path d="M79.1246 66.8223L86.1513 70.4027C87.0034 68.733 87.7276 66.9864 88.3148 65.1782L80.8139 62.7406C80.3546 64.1529 79.79 65.517 79.123 66.8223" fill="#20A07D"/>
<path d="M76.8125 70.5848L83.1918 75.2206C84.2984 73.6999 85.2906 72.0904 86.1518 70.4026L79.1251 66.8223C78.4521 68.1397 77.6767 69.3969 76.8125 70.5848Z" fill="#BE1E32"/>
<path d="M70.585 76.812L75.2208 83.1913C76.749 82.0787 78.1868 80.8516 79.5208 79.5191L73.944 73.9438C72.9021 74.9857 71.7789 75.9433 70.585 76.812Z" fill="#0061AF"/>
<path d="M66.8223 79.1246L70.4026 86.1513C72.0904 85.2901 73.6999 84.2979 75.2206 83.1912L70.5848 76.812C69.3969 77.6762 68.1397 78.4516 66.8223 79.1246Z" fill="#2B367C"/>
<path d="M81.8438 49.6387L89.6338 48.4041C89.3372 46.5175 88.8931 44.6822 88.3164 42.9056L80.8154 45.3432C81.2656 46.7313 81.6134 48.1662 81.8438 49.6387Z" fill="#2B367C"/>
<path d="M82.187 54.0426C82.187 55.5407 82.0696 57.0102 81.8438 58.445L89.6338 59.6796C89.9229 57.8428 90.0734 55.9608 90.0734 54.0426H82.187Z" fill="#62BB46"/>
<path d="M58.4449 81.8439L59.678 89.6339C61.5645 89.3373 63.3998 88.8947 65.1765 88.3165L62.7389 80.8156C61.3507 81.2657 59.9159 81.612 58.4434 81.8439" fill="#FFE72D"/>
<path d="M73.9435 34.1399L79.5203 28.5631C78.1878 27.2306 76.7484 26.0035 75.2217 24.8909L70.5859 31.2702C71.7799 32.1389 72.9031 33.0965 73.945 34.1384" fill="#FFE72D"/>
<path d="M70.5848 31.2717L75.2206 24.8924C73.6999 23.7858 72.0904 22.7936 70.4026 21.9324L66.8223 28.9606C68.1397 29.6336 69.3969 30.409 70.5848 31.2732" fill="#000810"/>
<path d="M66.822 28.9591L70.4023 21.9309C68.7326 21.0787 66.9861 20.3545 65.1778 19.7673L62.7402 27.2683C64.1525 27.726 65.5166 28.2921 66.822 28.9591Z" fill="#FDB933"/>
<path d="M54.043 82.187V90.0734C55.9611 90.0734 57.8431 89.9214 59.68 89.6338L58.4469 81.8438C57.012 82.0696 55.5426 82.187 54.043 82.187Z" fill="#EF4044"/>
<path d="M49.6384 81.8438L48.4053 89.6338C50.2421 89.9229 52.1241 90.0734 54.0423 90.0734V82.187C52.5442 82.187 51.0747 82.0681 49.6399 81.8438" fill="#FDB933"/>
<path d="M45.3429 80.8154L42.9053 88.3164C44.6819 88.8931 46.5188 89.3372 48.4053 89.6338L49.6399 81.8438C48.1659 81.6119 46.731 81.2656 45.3444 80.8154" fill="#62BB46"/>
<path d="M51.0484 35.1382L49.8153 27.3481C48.4015 27.571 47.0239 27.9037 45.6914 28.3358L48.129 35.8368C49.073 35.5297 50.0487 35.2948 51.0499 35.1367" fill="#EF4044"/>
<path d="M62.7334 36.9855L66.3137 29.9573C65.0611 29.3174 63.7512 28.7739 62.3946 28.3342L59.957 35.8352C60.9176 36.1469 61.8451 36.5308 62.7319 36.984" fill="#6DACDE"/>
<path d="M65.291 69.5249L69.9268 75.9042C71.0726 75.0701 72.1521 74.1501 73.1518 73.1504L67.5765 67.5736C66.8689 68.2812 66.104 68.9332 65.2925 69.5234" fill="#62BB46"/>
<path d="M45.352 36.987L41.7717 29.9587C40.5055 30.6046 39.2995 31.3484 38.1582 32.1795L42.794 38.5603C43.6025 37.9716 44.4562 37.4447 45.3535 36.987" fill="#FFE72D"/>
<path d="M72.247 48.127L79.7479 45.6894C79.3083 44.3328 78.7648 43.0229 78.1249 41.7703L71.0967 45.3506C71.5499 46.2374 71.9338 47.1649 72.247 48.1255" fill="#0061AF"/>
<path d="M72.2471 59.9567L79.748 62.3943C80.1802 61.0618 80.5129 59.6841 80.7357 58.2704L72.9457 57.0358C72.7891 58.037 72.5527 59.0126 72.2471 59.9567Z" fill="#007344"/>
<path d="M54.043 73.1804V81.0668C55.4808 81.0668 56.8931 80.9524 58.2707 80.7371L57.0376 72.947C56.062 73.1006 55.0623 73.1804 54.043 73.1804Z" fill="#0061AF"/>
<path d="M48.127 72.2469L45.6895 79.7479C47.0219 80.18 48.3996 80.5128 49.8133 80.7356L51.0464 72.9456C50.0452 72.7875 49.0696 72.5526 48.1255 72.2469" fill="#20A07D"/>
<path d="M34.905 54.0425H27.0186C27.0186 55.4804 27.1315 56.8927 27.3483 58.2703L35.1383 57.0357C34.9848 56.06 34.905 55.0603 34.905 54.041" fill="#007344"/>
<path d="M45.3518 71.0981L41.7715 78.1264C43.0242 78.7663 44.334 79.3098 45.6906 79.7494L48.1282 72.2484C47.1676 71.9368 46.2402 71.5513 45.3533 71.0981" fill="#6DACDE"/>
<path d="M35.8369 59.9567L28.3359 62.3943C28.7756 63.7509 29.3191 65.0608 29.959 66.3134L36.9872 62.7331C36.534 61.8463 36.1501 60.9188 35.8384 59.9582" fill="#BE1E32"/>
<path d="M44.0352 55.6265L36.2451 56.8596C36.3927 57.8021 36.6155 58.7205 36.9031 59.6089L44.4056 57.1713C44.243 56.6714 44.118 56.155 44.0337 55.625" fill="#62BB46"/>
<path d="M45.8462 48.0878L39.4654 43.452C38.9113 44.2124 38.416 45.0164 37.9854 45.861L45.0151 49.4429C45.2575 48.9686 45.536 48.5154 45.8462 48.0878Z" fill="#20A07D"/>
<path d="M45.0146 49.4429L37.9849 45.8611C37.5588 46.6967 37.1959 47.57 36.9023 48.4733L44.4048 50.9109C44.5689 50.402 44.7752 49.9127 45.0146 49.4429Z" fill="#FDB933"/>
<path d="M50.9112 44.4065L48.4736 36.9041C47.5687 37.1976 46.6969 37.559 45.8613 37.9866L49.4432 45.0163C49.9129 44.7769 50.4038 44.5722 50.9112 44.4065Z" fill="#2B367C"/>
<path d="M62.2374 48.0879L68.6182 43.4521C68.0626 42.6888 67.4483 41.9691 66.7829 41.3021L61.2061 46.8774C61.581 47.2523 61.9242 47.6573 62.2374 48.0879Z" fill="#EF4044"/>
<path d="M63.6783 57.1728L71.1807 59.6104C71.4698 58.7221 71.6912 57.8036 71.8387 56.8596L64.0486 55.625C63.9658 56.155 63.8394 56.6714 63.6768 57.1713" fill="#6DACDE"/>
<path d="M50.9112 63.6785L48.4736 71.181C49.3619 71.47 50.2804 71.6914 51.2229 71.8404L52.4575 64.0504C51.9275 63.9675 51.4111 63.8411 50.9112 63.68" fill="#FFE72D"/>
<path d="M73.1806 54.0426H81.0671C81.0671 52.6047 80.9541 51.1925 80.7373 49.8148L72.9473 51.0479C73.1008 52.0236 73.1806 53.0233 73.1806 54.0426Z" fill="#FFE72D"/>
</svg>
